<?xml version="1.0" encoding="UTF-8" standalone="no"?>
<!DOCTYPE svg PUBLIC "-//W3C//DTD SVG 1.1//EN"
 "http://www.w3.org/Graphics/SVG/1.1/DTD/svg11.dtd">
<!-- Generated by graphviz version 12.2.1 (20241206.2353)
 -->
<!-- Pages: 1 -->
<svg width="749pt" height="156pt"
 viewBox="0.00 0.00 748.75 156.00" xmlns="http://www.w3.org/2000/svg" xmlns:xlink="http://www.w3.org/1999/xlink">
<g id="graph0" class="graph" transform="scale(1 1) rotate(0) translate(4 152)">
<polygon fill="white" stroke="none" points="-4,4 -4,-152 744.75,-152 744.75,4 -4,4"/>
<!-- 2026063714384 -->
<g id="node1" class="node">
<title>2026063714384</title>
<polygon fill="none" stroke="black" points="0,-111.5 0,-147.5 89.75,-147.5 89.75,-111.5 0,-111.5"/>
<text text-anchor="middle" x="11" y="-124.7" font-family="Times New Roman,serif" font-size="14.00">a</text>
<polyline fill="none" stroke="black" points="22,-112 22,-147.5"/>
<text text-anchor="middle" x="55.88" y="-124.7" font-family="Times New Roman,serif" font-size="14.00">data: &#45;3.0</text>
</g>
<!-- 2026063719248* -->
<g id="node6" class="node">
<title>2026063719248*</title>
<ellipse fill="none" stroke="black" cx="152.75" cy="-101.5" rx="27" ry="18"/>
<text text-anchor="middle" x="152.75" y="-96.45" font-family="Times New Roman,serif" font-size="14.00">*</text>
</g>
<!-- 2026063714384&#45;&gt;2026063719248* -->
<g id="edge9" class="edge">
<title>2026063714384&#45;&gt;2026063719248*</title>
<path fill="none" stroke="black" d="M90.16,-117.79C98.89,-115.48 107.94,-113.09 116.32,-110.87"/>
<polygon fill="black" stroke="black" points="117.02,-114.3 125.8,-108.36 115.23,-107.54 117.02,-114.3"/>
</g>
<!-- 2026063719632 -->
<g id="node2" class="node">
<title>2026063719632</title>
<polygon fill="none" stroke="black" points="650.25,-27.5 650.25,-63.5 740.75,-63.5 740.75,-27.5 650.25,-27.5"/>
<text text-anchor="middle" x="661.62" y="-40.7" font-family="Times New Roman,serif" font-size="14.00">b</text>
<polyline fill="none" stroke="black" points="673,-28 673,-63.5"/>
<text text-anchor="middle" x="706.88" y="-40.7" font-family="Times New Roman,serif" font-size="14.00">data: &#45;8.0</text>
</g>
<!-- 2026063719632* -->
<g id="node3" class="node">
<title>2026063719632*</title>
<ellipse fill="none" stroke="black" cx="587.25" cy="-45.5" rx="27" ry="18"/>
<text text-anchor="middle" x="587.25" y="-40.45" font-family="Times New Roman,serif" font-size="14.00">*</text>
</g>
<!-- 2026063719632*&#45;&gt;2026063719632 -->
<g id="edge1" class="edge">
<title>2026063719632*&#45;&gt;2026063719632</title>
<path fill="none" stroke="black" d="M614.51,-45.5C621.87,-45.5 630.15,-45.5 638.53,-45.5"/>
<polygon fill="black" stroke="black" points="638.42,-49 648.42,-45.5 638.42,-42 638.42,-49"/>
</g>
<!-- 2026063708432 -->
<g id="node4" class="node">
<title>2026063708432</title>
<polygon fill="none" stroke="black" points="2.25,-56.5 2.25,-92.5 87.5,-92.5 87.5,-56.5 2.25,-56.5"/>
<text text-anchor="middle" x="13.25" y="-69.7" font-family="Times New Roman,serif" font-size="14.00">c</text>
<polyline fill="none" stroke="black" points="24.25,-57 24.25,-92.5"/>
<text text-anchor="middle" x="55.88" y="-69.7" font-family="Times New Roman,serif" font-size="14.00">data: 2.0</text>
</g>
<!-- 2026063708432&#45;&gt;2026063719248* -->
<g id="edge7" class="edge">
<title>2026063708432&#45;&gt;2026063719248*</title>
<path fill="none" stroke="black" d="M87.72,-85.17C97.07,-87.55 106.9,-90.06 115.97,-92.38"/>
<polygon fill="black" stroke="black" points="114.95,-95.73 125.51,-94.81 116.68,-88.94 114.95,-95.73"/>
</g>
<!-- 2026063719248 -->
<g id="node5" class="node">
<title>2026063719248</title>
<polygon fill="none" stroke="black" points="216.88,-83.5 216.88,-119.5 307.38,-119.5 307.38,-83.5 216.88,-83.5"/>
<text text-anchor="middle" x="228.25" y="-96.7" font-family="Times New Roman,serif" font-size="14.00">d</text>
<polyline fill="none" stroke="black" points="239.62,-84 239.62,-119.5"/>
<text text-anchor="middle" x="273.5" y="-96.7" font-family="Times New Roman,serif" font-size="14.00">data: &#45;6.0</text>
</g>
<!-- 2026063719376+ -->
<g id="node9" class="node">
<title>2026063719376+</title>
<ellipse fill="none" stroke="black" cx="371.5" cy="-73.5" rx="27" ry="18"/>
<text text-anchor="middle" x="371.5" y="-68.45" font-family="Times New Roman,serif" font-size="14.00">+</text>
</g>
<!-- 2026063719248&#45;&gt;2026063719376+ -->
<g id="edge6" class="edge">
<title>2026063719248&#45;&gt;2026063719376+</title>
<path fill="none" stroke="black" d="M307.73,-89.87C316.78,-87.51 326.19,-85.05 334.89,-82.79"/>
<polygon fill="black" stroke="black" points="335.55,-86.23 344.35,-80.32 333.79,-79.46 335.55,-86.23"/>
</g>
<!-- 2026063719248*&#45;&gt;2026063719248 -->
<g id="edge2" class="edge">
<title>2026063719248*&#45;&gt;2026063719248</title>
<path fill="none" stroke="black" d="M180.02,-101.5C187.79,-101.5 196.61,-101.5 205.49,-101.5"/>
<polygon fill="black" stroke="black" points="205.21,-105 215.21,-101.5 205.21,-98 205.21,-105"/>
</g>
<!-- 2026063714704 -->
<g id="node7" class="node">
<title>2026063714704</title>
<polygon fill="none" stroke="black" points="434.5,-0.5 434.5,-36.5 524.25,-36.5 524.25,-0.5 434.5,-0.5"/>
<text text-anchor="middle" x="445.5" y="-13.7" font-family="Times New Roman,serif" font-size="14.00">e</text>
<polyline fill="none" stroke="black" points="456.5,-1 456.5,-36.5"/>
<text text-anchor="middle" x="490.38" y="-13.7" font-family="Times New Roman,serif" font-size="14.00">data: &#45;2.0</text>
</g>
<!-- 2026063714704&#45;&gt;2026063719632* -->
<g id="edge8" class="edge">
<title>2026063714704&#45;&gt;2026063719632*</title>
<path fill="none" stroke="black" d="M524.66,-29.79C533.21,-31.97 542.07,-34.23 550.32,-36.34"/>
<polygon fill="black" stroke="black" points="549.44,-39.73 560,-38.81 551.17,-32.94 549.44,-39.73"/>
</g>
<!-- 2026063719376 -->
<g id="node8" class="node">
<title>2026063719376</title>
<polygon fill="none" stroke="black" points="437.5,-55.5 437.5,-91.5 521.25,-91.5 521.25,-55.5 437.5,-55.5"/>
<text text-anchor="middle" x="447.75" y="-68.7" font-family="Times New Roman,serif" font-size="14.00">f</text>
<polyline fill="none" stroke="black" points="458,-56 458,-91.5"/>
<text text-anchor="middle" x="489.62" y="-68.7" font-family="Times New Roman,serif" font-size="14.00">data: 4.0</text>
</g>
<!-- 2026063719376&#45;&gt;2026063719632* -->
<g id="edge4" class="edge">
<title>2026063719376&#45;&gt;2026063719632*</title>
<path fill="none" stroke="black" d="M521.61,-62.59C531.27,-60.04 541.48,-57.34 550.86,-54.86"/>
<polygon fill="black" stroke="black" points="551.56,-58.3 560.33,-52.36 549.77,-51.53 551.56,-58.3"/>
</g>
<!-- 2026063719376+&#45;&gt;2026063719376 -->
<g id="edge3" class="edge">
<title>2026063719376+&#45;&gt;2026063719376</title>
<path fill="none" stroke="black" d="M398.94,-73.5C407.13,-73.5 416.46,-73.5 425.77,-73.5"/>
<polygon fill="black" stroke="black" points="425.53,-77 435.53,-73.5 425.53,-70 425.53,-77"/>
</g>
<!-- 2026063714768 -->
<g id="node10" class="node">
<title>2026063714768</title>
<polygon fill="none" stroke="black" points="215.75,-28.5 215.75,-64.5 308.5,-64.5 308.5,-28.5 215.75,-28.5"/>
<text text-anchor="middle" x="227.12" y="-41.7" font-family="Times New Roman,serif" font-size="14.00">g</text>
<polyline fill="none" stroke="black" points="238.5,-29 238.5,-64.5"/>
<text text-anchor="middle" x="273.5" y="-41.7" font-family="Times New Roman,serif" font-size="14.00">data: 10.0</text>
</g>
<!-- 2026063714768&#45;&gt;2026063719376+ -->
<g id="edge5" class="edge">
<title>2026063714768&#45;&gt;2026063719376+</title>
<path fill="none" stroke="black" d="M308.97,-58.03C317.57,-60.19 326.45,-62.42 334.69,-64.5"/>
<polygon fill="black" stroke="black" points="333.8,-67.88 344.35,-66.93 335.51,-61.09 333.8,-67.88"/>
</g>
</g>
</svg>
