<?xml version="1.0" encoding="UTF-8" standalone="no"?>
<!DOCTYPE svg PUBLIC "-//W3C//DTD SVG 1.1//EN"
 "http://www.w3.org/Graphics/SVG/1.1/DTD/svg11.dtd">
<!-- Generated by graphviz version 12.2.1 (20241206.2353)
 -->
<!-- Pages: 1 -->
<svg width="659pt" height="194pt"
 viewBox="0.00 0.00 659.25 194.00" xmlns="http://www.w3.org/2000/svg" xmlns:xlink="http://www.w3.org/1999/xlink">
<g id="graph0" class="graph" transform="scale(1 1) rotate(0) translate(4 190)">
<polygon fill="white" stroke="none" points="-4,4 -4,-190 655.25,-190 655.25,4 -4,4"/>
<!-- 2805356590032 -->
<g id="node1" class="node">
<title>2805356590032</title>
<polygon fill="none" stroke="black" points="0,-136.5 0,-185.5 67.75,-185.5 67.75,-136.5 0,-136.5"/>
<text text-anchor="middle" x="33.88" y="-168.2" font-family="Times New Roman,serif" font-size="14.00">a</text>
<polyline fill="none" stroke="black" points="0,-161 67.75,-161"/>
<text text-anchor="middle" x="33.88" y="-143.7" font-family="Times New Roman,serif" font-size="14.00">data: &#45;3.0</text>
</g>
<!-- 2805356545744* -->
<g id="node3" class="node">
<title>2805356545744*</title>
<ellipse fill="none" stroke="black" cx="130.75" cy="-127" rx="27" ry="18"/>
<text text-anchor="middle" x="130.75" y="-121.95" font-family="Times New Roman,serif" font-size="14.00">*</text>
</g>
<!-- 2805356590032&#45;&gt;2805356545744* -->
<g id="edge5" class="edge">
<title>2805356590032&#45;&gt;2805356545744*</title>
<path fill="none" stroke="black" d="M68.06,-149.11C77.02,-145.9 86.74,-142.41 95.75,-139.19"/>
<polygon fill="black" stroke="black" points="96.63,-142.59 104.87,-135.92 94.27,-136 96.63,-142.59"/>
</g>
<!-- 2805356545744 -->
<g id="node2" class="node">
<title>2805356545744</title>
<polygon fill="none" stroke="black" points="194.88,-102.5 194.88,-151.5 262.62,-151.5 262.62,-102.5 194.88,-102.5"/>
<text text-anchor="middle" x="228.75" y="-134.2" font-family="Times New Roman,serif" font-size="14.00">b</text>
<polyline fill="none" stroke="black" points="194.88,-127 262.62,-127"/>
<text text-anchor="middle" x="228.75" y="-109.7" font-family="Times New Roman,serif" font-size="14.00">data: &#45;6.0</text>
</g>
<!-- 2805363974608+ -->
<g id="node10" class="node">
<title>2805363974608+</title>
<ellipse fill="none" stroke="black" cx="326.75" cy="-93" rx="27" ry="18"/>
<text text-anchor="middle" x="326.75" y="-87.95" font-family="Times New Roman,serif" font-size="14.00">+</text>
</g>
<!-- 2805356545744&#45;&gt;2805363974608+ -->
<g id="edge7" class="edge">
<title>2805356545744&#45;&gt;2805363974608+</title>
<path fill="none" stroke="black" d="M263.06,-115.2C272.3,-111.93 282.34,-108.37 291.63,-105.09"/>
<polygon fill="black" stroke="black" points="292.79,-108.39 301.05,-101.75 290.45,-101.79 292.79,-108.39"/>
</g>
<!-- 2805356545744*&#45;&gt;2805356545744 -->
<g id="edge1" class="edge">
<title>2805356545744*&#45;&gt;2805356545744</title>
<path fill="none" stroke="black" d="M158.24,-127C165.94,-127 174.58,-127 183.08,-127"/>
<polygon fill="black" stroke="black" points="182.97,-130.5 192.97,-127 182.97,-123.5 182.97,-130.5"/>
</g>
<!-- 2805356478160 -->
<g id="node4" class="node">
<title>2805356478160</title>
<polygon fill="none" stroke="black" points="2.25,-68.5 2.25,-117.5 65.5,-117.5 65.5,-68.5 2.25,-68.5"/>
<text text-anchor="middle" x="33.88" y="-100.2" font-family="Times New Roman,serif" font-size="14.00">c</text>
<polyline fill="none" stroke="black" points="2.25,-93 65.5,-93"/>
<text text-anchor="middle" x="33.88" y="-75.7" font-family="Times New Roman,serif" font-size="14.00">data: 2.0</text>
</g>
<!-- 2805356478160&#45;&gt;2805356545744* -->
<g id="edge6" class="edge">
<title>2805356478160&#45;&gt;2805356545744*</title>
<path fill="none" stroke="black" d="M65.94,-104.13C75.52,-107.57 86.12,-111.36 95.88,-114.86"/>
<polygon fill="black" stroke="black" points="94.42,-118.06 105.02,-118.14 96.78,-111.47 94.42,-118.06"/>
</g>
<!-- 2805356545808 -->
<g id="node5" class="node">
<title>2805356545808</title>
<polygon fill="none" stroke="black" points="389.75,-0.5 389.75,-49.5 457.5,-49.5 457.5,-0.5 389.75,-0.5"/>
<text text-anchor="middle" x="423.62" y="-32.2" font-family="Times New Roman,serif" font-size="14.00">d</text>
<polyline fill="none" stroke="black" points="389.75,-25 457.5,-25"/>
<text text-anchor="middle" x="423.62" y="-7.7" font-family="Times New Roman,serif" font-size="14.00">data: &#45;2.0</text>
</g>
<!-- 2805356627344* -->
<g id="node8" class="node">
<title>2805356627344*</title>
<ellipse fill="none" stroke="black" cx="520.5" cy="-59" rx="27" ry="18"/>
<text text-anchor="middle" x="520.5" y="-53.95" font-family="Times New Roman,serif" font-size="14.00">*</text>
</g>
<!-- 2805356545808&#45;&gt;2805356627344* -->
<g id="edge4" class="edge">
<title>2805356545808&#45;&gt;2805356627344*</title>
<path fill="none" stroke="black" d="M457.81,-36.89C466.77,-40.1 476.49,-43.59 485.5,-46.81"/>
<polygon fill="black" stroke="black" points="484.02,-50 494.62,-50.08 486.38,-43.41 484.02,-50"/>
</g>
<!-- 2805356544976 -->
<g id="node6" class="node">
<title>2805356544976</title>
<polygon fill="none" stroke="black" points="193.75,-34.5 193.75,-83.5 263.75,-83.5 263.75,-34.5 193.75,-34.5"/>
<text text-anchor="middle" x="228.75" y="-66.2" font-family="Times New Roman,serif" font-size="14.00">e</text>
<polyline fill="none" stroke="black" points="193.75,-59 263.75,-59"/>
<text text-anchor="middle" x="228.75" y="-41.7" font-family="Times New Roman,serif" font-size="14.00">data: 10.0</text>
</g>
<!-- 2805356544976&#45;&gt;2805363974608+ -->
<g id="edge8" class="edge">
<title>2805356544976&#45;&gt;2805363974608+</title>
<path fill="none" stroke="black" d="M264.14,-71.18C273.06,-74.34 282.68,-77.75 291.59,-80.9"/>
<polygon fill="black" stroke="black" points="290.39,-84.19 300.98,-84.23 292.73,-77.59 290.39,-84.19"/>
</g>
<!-- 2805356627344 -->
<g id="node7" class="node">
<title>2805356627344</title>
<polygon fill="none" stroke="black" points="583.5,-34.5 583.5,-83.5 651.25,-83.5 651.25,-34.5 583.5,-34.5"/>
<text text-anchor="middle" x="617.38" y="-66.2" font-family="Times New Roman,serif" font-size="14.00">f</text>
<polyline fill="none" stroke="black" points="583.5,-59 651.25,-59"/>
<text text-anchor="middle" x="617.38" y="-41.7" font-family="Times New Roman,serif" font-size="14.00">data: &#45;8.0</text>
</g>
<!-- 2805356627344*&#45;&gt;2805356627344 -->
<g id="edge2" class="edge">
<title>2805356627344*&#45;&gt;2805356627344</title>
<path fill="none" stroke="black" d="M547.93,-59C555.38,-59 563.7,-59 571.9,-59"/>
<polygon fill="black" stroke="black" points="571.8,-62.5 581.8,-59 571.8,-55.5 571.8,-62.5"/>
</g>
<!-- 2805363974608 -->
<g id="node9" class="node">
<title>2805363974608</title>
<polygon fill="none" stroke="black" points="392,-68.5 392,-117.5 455.25,-117.5 455.25,-68.5 392,-68.5"/>
<text text-anchor="middle" x="423.62" y="-100.2" font-family="Times New Roman,serif" font-size="14.00">g</text>
<polyline fill="none" stroke="black" points="392,-93 455.25,-93"/>
<text text-anchor="middle" x="423.62" y="-75.7" font-family="Times New Roman,serif" font-size="14.00">data: 4.0</text>
</g>
<!-- 2805363974608&#45;&gt;2805356627344* -->
<g id="edge9" class="edge">
<title>2805363974608&#45;&gt;2805356627344*</title>
<path fill="none" stroke="black" d="M455.69,-81.87C465.27,-78.43 475.87,-74.64 485.63,-71.14"/>
<polygon fill="black" stroke="black" points="486.53,-74.53 494.77,-67.86 484.17,-67.94 486.53,-74.53"/>
</g>
<!-- 2805363974608+&#45;&gt;2805363974608 -->
<g id="edge3" class="edge">
<title>2805363974608+&#45;&gt;2805363974608</title>
<path fill="none" stroke="black" d="M354.18,-93C362.26,-93 371.36,-93 380.23,-93"/>
<polygon fill="black" stroke="black" points="380.12,-96.5 390.12,-93 380.12,-89.5 380.12,-96.5"/>
</g>
</g>
</svg>
