<?xml version="1.0" encoding="UTF-8" standalone="no"?>
<!DOCTYPE svg PUBLIC "-//W3C//DTD SVG 1.1//EN"
 "http://www.w3.org/Graphics/SVG/1.1/DTD/svg11.dtd">
<!-- Generated by graphviz version 12.2.1 (20241206.2353)
 -->
<!-- Pages: 1 -->
<svg width="1145pt" height="128pt"
 viewBox="0.00 0.00 1145.00 128.00" xmlns="http://www.w3.org/2000/svg" xmlns:xlink="http://www.w3.org/1999/xlink">
<g id="graph0" class="graph" transform="scale(1 1) rotate(0) translate(4 124)">
<polygon fill="white" stroke="none" points="-4,4 -4,-124 1141,-124 1141,4 -4,4"/>
<!-- 1597151966352 -->
<g id="node1" class="node">
<title>1597151966352</title>
<polygon fill="none" stroke="black" points="888,-54.5 888,-90.5 1137,-90.5 1137,-54.5 888,-54.5"/>
<text text-anchor="middle" x="899" y="-67.7" font-family="Times New Roman,serif" font-size="14.00">a</text>
<polyline fill="none" stroke="black" points="910,-55 910,-90.5"/>
<text text-anchor="middle" x="991.12" y="-67.7" font-family="Times New Roman,serif" font-size="14.00">data: &#45;7.960198999999999</text>
<polyline fill="none" stroke="black" points="1072.25,-55 1072.25,-90.5"/>
<text text-anchor="middle" x="1104.62" y="-67.7" font-family="Times New Roman,serif" font-size="14.00">grad: 0.0</text>
</g>
<!-- 1597151966352* -->
<g id="node2" class="node">
<title>1597151966352*</title>
<ellipse fill="none" stroke="black" cx="825" cy="-72.5" rx="27" ry="18"/>
<text text-anchor="middle" x="825" y="-67.45" font-family="Times New Roman,serif" font-size="14.00">*</text>
</g>
<!-- 1597151966352*&#45;&gt;1597151966352 -->
<g id="edge1" class="edge">
<title>1597151966352*&#45;&gt;1597151966352</title>
<path fill="none" stroke="black" d="M852.18,-72.5C859.36,-72.5 867.65,-72.5 876.61,-72.5"/>
<polygon fill="black" stroke="black" points="876.32,-76 886.32,-72.5 876.32,-69 876.32,-76"/>
</g>
<!-- 1597151953552 -->
<g id="node3" class="node">
<title>1597151953552</title>
<polygon fill="none" stroke="black" points="0,-83.5 0,-119.5 166.5,-119.5 166.5,-83.5 0,-83.5"/>
<text text-anchor="middle" x="11.38" y="-96.7" font-family="Times New Roman,serif" font-size="14.00">b</text>
<polyline fill="none" stroke="black" points="22.75,-84 22.75,-119.5"/>
<text text-anchor="middle" x="60" y="-96.7" font-family="Times New Roman,serif" font-size="14.00">data: &#45;2.99</text>
<polyline fill="none" stroke="black" points="97.25,-84 97.25,-119.5"/>
<text text-anchor="middle" x="131.88" y="-96.7" font-family="Times New Roman,serif" font-size="14.00">grad: &#45;4.0</text>
</g>
<!-- 1597151967952* -->
<g id="node5" class="node">
<title>1597151967952*</title>
<ellipse fill="none" stroke="black" cx="229.5" cy="-73.5" rx="27" ry="18"/>
<text text-anchor="middle" x="229.5" y="-68.45" font-family="Times New Roman,serif" font-size="14.00">*</text>
</g>
<!-- 1597151953552&#45;&gt;1597151967952* -->
<g id="edge8" class="edge">
<title>1597151953552&#45;&gt;1597151967952*</title>
<path fill="none" stroke="black" d="M166.91,-85.46C175.69,-83.75 184.25,-82.09 192.07,-80.57"/>
<polygon fill="black" stroke="black" points="192.65,-84.02 201.8,-78.68 191.32,-77.15 192.65,-84.02"/>
</g>
<!-- 1597151967952 -->
<g id="node4" class="node">
<title>1597151967952</title>
<polygon fill="none" stroke="black" points="292.5,-55.5 292.5,-91.5 467.25,-91.5 467.25,-55.5 292.5,-55.5"/>
<text text-anchor="middle" x="303.5" y="-68.7" font-family="Times New Roman,serif" font-size="14.00">c</text>
<polyline fill="none" stroke="black" points="314.5,-56 314.5,-91.5"/>
<text text-anchor="middle" x="358.5" y="-68.7" font-family="Times New Roman,serif" font-size="14.00">data: &#45;6.0099</text>
<polyline fill="none" stroke="black" points="402.5,-56 402.5,-91.5"/>
<text text-anchor="middle" x="434.88" y="-68.7" font-family="Times New Roman,serif" font-size="14.00">grad: 0.0</text>
</g>
<!-- 1597151966096+ -->
<g id="node9" class="node">
<title>1597151966096+</title>
<ellipse fill="none" stroke="black" cx="530.25" cy="-45.5" rx="27" ry="18"/>
<text text-anchor="middle" x="530.25" y="-40.45" font-family="Times New Roman,serif" font-size="14.00">+</text>
</g>
<!-- 1597151967952&#45;&gt;1597151966096+ -->
<g id="edge4" class="edge">
<title>1597151967952&#45;&gt;1597151966096+</title>
<path fill="none" stroke="black" d="M467.61,-57.13C476.37,-55.48 484.89,-53.87 492.66,-52.4"/>
<polygon fill="black" stroke="black" points="493.15,-55.87 502.33,-50.58 491.85,-49 493.15,-55.87"/>
</g>
<!-- 1597151967952*&#45;&gt;1597151967952 -->
<g id="edge2" class="edge">
<title>1597151967952*&#45;&gt;1597151967952</title>
<path fill="none" stroke="black" d="M256.68,-73.5C263.88,-73.5 272.13,-73.5 280.88,-73.5"/>
<polygon fill="black" stroke="black" points="280.66,-77 290.66,-73.5 280.66,-70 280.66,-77"/>
</g>
<!-- 1597151959824 -->
<g id="node6" class="node">
<title>1597151959824</title>
<polygon fill="none" stroke="black" points="295.5,-0.5 295.5,-36.5 464.25,-36.5 464.25,-0.5 295.5,-0.5"/>
<text text-anchor="middle" x="306.88" y="-13.7" font-family="Times New Roman,serif" font-size="14.00">d</text>
<polyline fill="none" stroke="black" points="318.25,-1 318.25,-36.5"/>
<text text-anchor="middle" x="356.62" y="-13.7" font-family="Times New Roman,serif" font-size="14.00">data: 10.01</text>
<polyline fill="none" stroke="black" points="395,-1 395,-36.5"/>
<text text-anchor="middle" x="429.62" y="-13.7" font-family="Times New Roman,serif" font-size="14.00">grad: &#45;2.0</text>
</g>
<!-- 1597151959824&#45;&gt;1597151966096+ -->
<g id="edge7" class="edge">
<title>1597151959824&#45;&gt;1597151966096+</title>
<path fill="none" stroke="black" d="M464.6,-33.74C474.36,-35.51 483.9,-37.25 492.52,-38.82"/>
<polygon fill="black" stroke="black" points="491.69,-42.22 502.16,-40.57 492.95,-35.34 491.69,-42.22"/>
</g>
<!-- 1597151961424 -->
<g id="node7" class="node">
<title>1597151961424</title>
<polygon fill="none" stroke="black" points="597,-82.5 597,-118.5 758.25,-118.5 758.25,-82.5 597,-82.5"/>
<text text-anchor="middle" x="608" y="-95.7" font-family="Times New Roman,serif" font-size="14.00">e</text>
<polyline fill="none" stroke="black" points="619,-83 619,-118.5"/>
<text text-anchor="middle" x="656.25" y="-95.7" font-family="Times New Roman,serif" font-size="14.00">data: &#45;1.99</text>
<polyline fill="none" stroke="black" points="693.5,-83 693.5,-118.5"/>
<text text-anchor="middle" x="725.88" y="-95.7" font-family="Times New Roman,serif" font-size="14.00">grad: 4.0</text>
</g>
<!-- 1597151961424&#45;&gt;1597151966352* -->
<g id="edge9" class="edge">
<title>1597151961424&#45;&gt;1597151966352*</title>
<path fill="none" stroke="black" d="M758.54,-85.11C768.63,-83.16 778.54,-81.26 787.47,-79.54"/>
<polygon fill="black" stroke="black" points="787.93,-83.01 797.09,-77.68 786.61,-76.14 787.93,-83.01"/>
</g>
<!-- 1597151966096 -->
<g id="node8" class="node">
<title>1597151966096</title>
<polygon fill="none" stroke="black" points="593.25,-27.5 593.25,-63.5 762,-63.5 762,-27.5 593.25,-27.5"/>
<text text-anchor="middle" x="603.5" y="-40.7" font-family="Times New Roman,serif" font-size="14.00">f</text>
<polyline fill="none" stroke="black" points="613.75,-28 613.75,-63.5"/>
<text text-anchor="middle" x="655.5" y="-40.7" font-family="Times New Roman,serif" font-size="14.00">data: 4.0001</text>
<polyline fill="none" stroke="black" points="697.25,-28 697.25,-63.5"/>
<text text-anchor="middle" x="729.62" y="-40.7" font-family="Times New Roman,serif" font-size="14.00">grad: 0.0</text>
</g>
<!-- 1597151966096&#45;&gt;1597151966352* -->
<g id="edge5" class="edge">
<title>1597151966096&#45;&gt;1597151966352*</title>
<path fill="none" stroke="black" d="M762.35,-61.05C771.07,-62.67 779.57,-64.25 787.33,-65.69"/>
<polygon fill="black" stroke="black" points="786.53,-69.1 797,-67.49 787.81,-62.22 786.53,-69.1"/>
</g>
<!-- 1597151966096+&#45;&gt;1597151966096 -->
<g id="edge3" class="edge">
<title>1597151966096+&#45;&gt;1597151966096</title>
<path fill="none" stroke="black" d="M557.58,-45.5C564.77,-45.5 573,-45.5 581.7,-45.5"/>
<polygon fill="black" stroke="black" points="581.42,-49 591.42,-45.5 581.42,-42 581.42,-49"/>
</g>
<!-- 1597151954384 -->
<g id="node10" class="node">
<title>1597151954384</title>
<polygon fill="none" stroke="black" points="4.5,-28.5 4.5,-64.5 162,-64.5 162,-28.5 4.5,-28.5"/>
<text text-anchor="middle" x="15.88" y="-41.7" font-family="Times New Roman,serif" font-size="14.00">g</text>
<polyline fill="none" stroke="black" points="27.25,-29 27.25,-64.5"/>
<text text-anchor="middle" x="62.25" y="-41.7" font-family="Times New Roman,serif" font-size="14.00">data: 2.01</text>
<polyline fill="none" stroke="black" points="97.25,-29 97.25,-64.5"/>
<text text-anchor="middle" x="129.62" y="-41.7" font-family="Times New Roman,serif" font-size="14.00">grad: 6.0</text>
</g>
<!-- 1597151954384&#45;&gt;1597151967952* -->
<g id="edge6" class="edge">
<title>1597151954384&#45;&gt;1597151967952*</title>
<path fill="none" stroke="black" d="M162.29,-61.11C172.53,-63.02 182.62,-64.91 191.71,-66.61"/>
<polygon fill="black" stroke="black" points="191.06,-70.05 201.53,-68.45 192.35,-63.17 191.06,-70.05"/>
</g>
</g>
</svg>
