<?xml version="1.0" encoding="UTF-8" standalone="no"?>
<!DOCTYPE svg PUBLIC "-//W3C//DTD SVG 1.1//EN"
 "http://www.w3.org/Graphics/SVG/1.1/DTD/svg11.dtd">
<!-- Generated by graphviz version 12.2.1 (20241206.2353)
 -->
<!-- Pages: 1 -->
<svg width="916pt" height="210pt"
 viewBox="0.00 0.00 916.00 210.00" xmlns="http://www.w3.org/2000/svg" xmlns:xlink="http://www.w3.org/1999/xlink">
<g id="graph0" class="graph" transform="scale(1 1) rotate(0) translate(4 206)">
<polygon fill="white" stroke="none" points="-4,4 -4,-206 912,-206 912,4 -4,4"/>
<!-- 2679015794704 -->
<g id="node1" class="node">
<title>2679015794704</title>
<polygon fill="none" stroke="black" points="0,-165.5 0,-201.5 132.5,-201.5 132.5,-165.5 0,-165.5"/>
<text text-anchor="middle" x="33.88" y="-178.7" font-family="Times New Roman,serif" font-size="14.00">data: &#45;3.0</text>
<polyline fill="none" stroke="black" points="67.75,-166 67.75,-201.5"/>
<text text-anchor="middle" x="100.12" y="-178.7" font-family="Times New Roman,serif" font-size="14.00">grad: 0.0</text>
</g>
<!-- 2679015795984* -->
<g id="node8" class="node">
<title>2679015795984*</title>
<ellipse fill="none" stroke="black" cx="195.5" cy="-128.5" rx="27" ry="18"/>
<text text-anchor="middle" x="195.5" y="-123.45" font-family="Times New Roman,serif" font-size="14.00">*</text>
</g>
<!-- 2679015794704&#45;&gt;2679015795984* -->
<g id="edge11" class="edge">
<title>2679015794704&#45;&gt;2679015795984*</title>
<path fill="none" stroke="black" d="M112.26,-165.1C119.06,-162.25 125.97,-159.32 132.5,-156.5 142.27,-152.28 152.84,-147.56 162.44,-143.21"/>
<polygon fill="black" stroke="black" points="163.74,-146.47 171.39,-139.14 160.84,-140.1 163.74,-146.47"/>
</g>
<!-- 2679015795216 -->
<g id="node2" class="node">
<title>2679015795216</title>
<polygon fill="none" stroke="black" points="0,-55.5 0,-91.5 132.5,-91.5 132.5,-55.5 0,-55.5"/>
<text text-anchor="middle" x="33.88" y="-68.7" font-family="Times New Roman,serif" font-size="14.00">data: &#45;0.5</text>
<polyline fill="none" stroke="black" points="67.75,-56 67.75,-91.5"/>
<text text-anchor="middle" x="100.12" y="-68.7" font-family="Times New Roman,serif" font-size="14.00">grad: 0.0</text>
</g>
<!-- 2679015795920* -->
<g id="node6" class="node">
<title>2679015795920*</title>
<ellipse fill="none" stroke="black" cx="195.5" cy="-73.5" rx="27" ry="18"/>
<text text-anchor="middle" x="195.5" y="-68.45" font-family="Times New Roman,serif" font-size="14.00">*</text>
</g>
<!-- 2679015795216&#45;&gt;2679015795920* -->
<g id="edge10" class="edge">
<title>2679015795216&#45;&gt;2679015795920*</title>
<path fill="none" stroke="black" d="M132.74,-73.5C140.97,-73.5 149.16,-73.5 156.76,-73.5"/>
<polygon fill="black" stroke="black" points="156.62,-77 166.62,-73.5 156.62,-70 156.62,-77"/>
</g>
<!-- 2679015795792 -->
<g id="node3" class="node">
<title>2679015795792</title>
<polygon fill="none" stroke="black" points="2.25,-110.5 2.25,-146.5 130.25,-146.5 130.25,-110.5 2.25,-110.5"/>
<text text-anchor="middle" x="33.88" y="-123.7" font-family="Times New Roman,serif" font-size="14.00">data: 1.0</text>
<polyline fill="none" stroke="black" points="65.5,-111 65.5,-146.5"/>
<text text-anchor="middle" x="97.88" y="-123.7" font-family="Times New Roman,serif" font-size="14.00">grad: 0.0</text>
</g>
<!-- 2679015795792&#45;&gt;2679015795984* -->
<g id="edge5" class="edge">
<title>2679015795792&#45;&gt;2679015795984*</title>
<path fill="none" stroke="black" d="M130.5,-128.5C139.57,-128.5 148.66,-128.5 157.01,-128.5"/>
<polygon fill="black" stroke="black" points="156.75,-132 166.75,-128.5 156.75,-125 156.75,-132"/>
</g>
<!-- 2679015795856 -->
<g id="node4" class="node">
<title>2679015795856</title>
<polygon fill="none" stroke="black" points="519.25,-27.5 519.25,-63.5 647.25,-63.5 647.25,-27.5 519.25,-27.5"/>
<text text-anchor="middle" x="550.88" y="-40.7" font-family="Times New Roman,serif" font-size="14.00">data: 0.1</text>
<polyline fill="none" stroke="black" points="582.5,-28 582.5,-63.5"/>
<text text-anchor="middle" x="614.88" y="-40.7" font-family="Times New Roman,serif" font-size="14.00">grad: 0.0</text>
</g>
<!-- 2679015796112+ -->
<g id="node13" class="node">
<title>2679015796112+</title>
<ellipse fill="none" stroke="black" cx="712.5" cy="-72.5" rx="27" ry="18"/>
<text text-anchor="middle" x="712.5" y="-67.45" font-family="Times New Roman,serif" font-size="14.00">+</text>
</g>
<!-- 2679015795856&#45;&gt;2679015796112+ -->
<g id="edge9" class="edge">
<title>2679015795856&#45;&gt;2679015796112+</title>
<path fill="none" stroke="black" d="M647.5,-58.92C656.94,-60.92 666.38,-62.93 675.01,-64.76"/>
<polygon fill="black" stroke="black" points="674.2,-68.16 684.71,-66.81 675.65,-61.32 674.2,-68.16"/>
</g>
<!-- 2679015795920 -->
<g id="node5" class="node">
<title>2679015795920</title>
<polygon fill="none" stroke="black" points="258.5,-55.5 258.5,-91.5 391,-91.5 391,-55.5 258.5,-55.5"/>
<text text-anchor="middle" x="292.38" y="-68.7" font-family="Times New Roman,serif" font-size="14.00">data: &#45;1.0</text>
<polyline fill="none" stroke="black" points="326.25,-56 326.25,-91.5"/>
<text text-anchor="middle" x="358.62" y="-68.7" font-family="Times New Roman,serif" font-size="14.00">grad: 0.0</text>
</g>
<!-- 2679015796048+ -->
<g id="node10" class="node">
<title>2679015796048+</title>
<ellipse fill="none" stroke="black" cx="454" cy="-100.5" rx="27" ry="18"/>
<text text-anchor="middle" x="454" y="-95.45" font-family="Times New Roman,serif" font-size="14.00">+</text>
</g>
<!-- 2679015795920&#45;&gt;2679015796048+ -->
<g id="edge8" class="edge">
<title>2679015795920&#45;&gt;2679015796048+</title>
<path fill="none" stroke="black" d="M391.24,-87.4C399.99,-89.25 408.7,-91.1 416.7,-92.8"/>
<polygon fill="black" stroke="black" points="415.84,-96.19 426.35,-94.85 417.3,-89.35 415.84,-96.19"/>
</g>
<!-- 2679015795920*&#45;&gt;2679015795920 -->
<g id="edge1" class="edge">
<title>2679015795920*&#45;&gt;2679015795920</title>
<path fill="none" stroke="black" d="M222.87,-73.5C230.05,-73.5 238.22,-73.5 246.72,-73.5"/>
<polygon fill="black" stroke="black" points="246.52,-77 256.52,-73.5 246.52,-70 246.52,-77"/>
</g>
<!-- 2679015795984 -->
<g id="node7" class="node">
<title>2679015795984</title>
<polygon fill="none" stroke="black" points="258.5,-110.5 258.5,-146.5 391,-146.5 391,-110.5 258.5,-110.5"/>
<text text-anchor="middle" x="292.38" y="-123.7" font-family="Times New Roman,serif" font-size="14.00">data: &#45;3.0</text>
<polyline fill="none" stroke="black" points="326.25,-111 326.25,-146.5"/>
<text text-anchor="middle" x="358.62" y="-123.7" font-family="Times New Roman,serif" font-size="14.00">grad: 0.0</text>
</g>
<!-- 2679015795984&#45;&gt;2679015796048+ -->
<g id="edge12" class="edge">
<title>2679015795984&#45;&gt;2679015796048+</title>
<path fill="none" stroke="black" d="M391.24,-114.09C399.99,-112.16 408.7,-110.25 416.7,-108.49"/>
<polygon fill="black" stroke="black" points="417.34,-111.93 426.35,-106.36 415.84,-105.09 417.34,-111.93"/>
</g>
<!-- 2679015795984*&#45;&gt;2679015795984 -->
<g id="edge2" class="edge">
<title>2679015795984*&#45;&gt;2679015795984</title>
<path fill="none" stroke="black" d="M222.87,-128.5C230.05,-128.5 238.22,-128.5 246.72,-128.5"/>
<polygon fill="black" stroke="black" points="246.52,-132 256.52,-128.5 246.52,-125 246.52,-132"/>
</g>
<!-- 2679015796048 -->
<g id="node9" class="node">
<title>2679015796048</title>
<polygon fill="none" stroke="black" points="517,-82.5 517,-118.5 649.5,-118.5 649.5,-82.5 517,-82.5"/>
<text text-anchor="middle" x="550.88" y="-95.7" font-family="Times New Roman,serif" font-size="14.00">data: &#45;4.0</text>
<polyline fill="none" stroke="black" points="584.75,-83 584.75,-118.5"/>
<text text-anchor="middle" x="617.12" y="-95.7" font-family="Times New Roman,serif" font-size="14.00">grad: 0.0</text>
</g>
<!-- 2679015796048&#45;&gt;2679015796112+ -->
<g id="edge7" class="edge">
<title>2679015796048&#45;&gt;2679015796112+</title>
<path fill="none" stroke="black" d="M649.74,-86.09C658.49,-84.16 667.2,-82.25 675.2,-80.49"/>
<polygon fill="black" stroke="black" points="675.84,-83.93 684.85,-78.36 674.34,-77.09 675.84,-83.93"/>
</g>
<!-- 2679015796048+&#45;&gt;2679015796048 -->
<g id="edge3" class="edge">
<title>2679015796048+&#45;&gt;2679015796048</title>
<path fill="none" stroke="black" d="M481.37,-100.5C488.55,-100.5 496.72,-100.5 505.22,-100.5"/>
<polygon fill="black" stroke="black" points="505.02,-104 515.02,-100.5 505.02,-97 505.02,-104"/>
</g>
<!-- 2679015786832 -->
<g id="node11" class="node">
<title>2679015786832</title>
<polygon fill="none" stroke="black" points="2.25,-0.5 2.25,-36.5 130.25,-36.5 130.25,-0.5 2.25,-0.5"/>
<text text-anchor="middle" x="33.88" y="-13.7" font-family="Times New Roman,serif" font-size="14.00">data: 2.0</text>
<polyline fill="none" stroke="black" points="65.5,-1 65.5,-36.5"/>
<text text-anchor="middle" x="97.88" y="-13.7" font-family="Times New Roman,serif" font-size="14.00">grad: 0.0</text>
</g>
<!-- 2679015786832&#45;&gt;2679015795920* -->
<g id="edge6" class="edge">
<title>2679015786832&#45;&gt;2679015795920*</title>
<path fill="none" stroke="black" d="M112.26,-36.9C119.06,-39.75 125.97,-42.68 132.5,-45.5 142.27,-49.72 152.84,-54.44 162.44,-58.79"/>
<polygon fill="black" stroke="black" points="160.84,-61.9 171.39,-62.86 163.74,-55.53 160.84,-61.9"/>
</g>
<!-- 2679015796112 -->
<g id="node12" class="node">
<title>2679015796112</title>
<polygon fill="none" stroke="black" points="775.5,-54.5 775.5,-90.5 908,-90.5 908,-54.5 775.5,-54.5"/>
<text text-anchor="middle" x="809.38" y="-67.7" font-family="Times New Roman,serif" font-size="14.00">data: &#45;3.9</text>
<polyline fill="none" stroke="black" points="843.25,-55 843.25,-90.5"/>
<text text-anchor="middle" x="875.62" y="-67.7" font-family="Times New Roman,serif" font-size="14.00">grad: 0.0</text>
</g>
<!-- 2679015796112+&#45;&gt;2679015796112 -->
<g id="edge4" class="edge">
<title>2679015796112+&#45;&gt;2679015796112</title>
<path fill="none" stroke="black" d="M739.87,-72.5C747.05,-72.5 755.22,-72.5 763.72,-72.5"/>
<polygon fill="black" stroke="black" points="763.52,-76 773.52,-72.5 763.52,-69 763.52,-76"/>
</g>
</g>
</svg>
